#!OML:ASF Y:\EmotionMaleHayes\Project 1\Capture day 1\Session 1\Male1.ASF
:FULLY-SPECIFIED
:DEGREES
1510
root 49.0195 17.1073 -0.679322 1177.12 86.1276 1179.7
lowerback 1.98354 1.40307 -5.89257
upperback 2.19073 1.84532 -0.378222
thorax 0.97456 0.864096 2.88851
lowerneck -29.0252 0.773988 1.85134
upperneck 16.4566 -0.00164199 1.35493
head 9.94147 0.30615 0.191635
rclavicle -1.2803e-014 1.79403e-014
rhumerus -32.3016 12.5572 -91.0654
rradius 34.5219
rwrist -5.65841
rhand -4.64719 -33.8145
rfingers 7.12502
rthumb 21.1324 -62.6829
lclavicle -1.2803e-014 1.79403e-014
lhumerus -34.5209 -22.4175 96.1792
lradius 32.187
lwrist 6.94809
lhand -12.8592 -22.318
lfingers 7.12502
lthumb 13.2289 7.2422
rfemur 12.7406 -2.87599 7.50452
rtibia 2.14179
rfoot -16.1212 -6.80107
rtoes 8.52277
lfemur 15.5367 -5.79119 -17.0749
ltibia 0.97575
lfoot -14.1029 5.78792
ltoes -7.42748
1511
root 49.0207 17.1061 -0.678753 1175.14 86.2075 1177.71
lowerback 2.04304 1.44929 -5.8214
upperback 2.15149 1.90085 -0.354906
thorax 0.896632 0.895164 2.86947
lowerneck -29.0634 0.718304 1.78649
upperneck 16.602 -0.0521091 1.33866
head 10.0002 0.277669 0.188411
rclavicle -9.61931e-015 9.93923e-015
rhumerus -32.2191 12.7602 -91.0794
rradius 34.454
rwrist -5.80725
rhand -4.51189 -33.893
rfingers 7.12502
rthumb 21.2623 -62.7467
lclavicle -9.61931e-015 9.93923e-015
lhumerus -34.3306 -22.4363 96.0911
lradius 32.1874
lwrist 6.8822
lhand -12.9435 -22.3441
lfingers 7.12502
lthumb 13.1476 7.22138
rfemur 12.7314 -2.83134 7.6032
rtibia 2.07017
rfoot -16.1064 -6.69366
rtoes 8.47574
lfemur 15.5739 -5.80352 -17.027
ltibia 0.959083
lfoot -14.152 5.96154
ltoes -7.44822
1512
root 49.0125 17.1077 -0.672308 1172.02 86.3863 1174.55
lowerback 2.22238 1.52386 -5.72695
upperback 2.06276 1.98361 -0.308165
thorax 0.697925 0.943898 2.85654
lowerneck -28.9452 0.72297 1.78415
upperneck 16.6314 -0.0416426 1.33387
head 9.99149 0.28129 0.188349
rclavicle -6.22444e-015 -7.45443e-015
rhumerus -32.2067 12.7453 -91.0902
rradius 34.4656
rwrist -5.79351
rhand -4.6916 -33.7415
rfingers 7.12502
rthumb 21.0897 -62.6146
lclavicle -6.22444e-015 -7.45443e-015
lhumerus -34.1459 -22.2864 95.9125
lradius 32.2114
lwrist 6.70573
lhand -12.7455 -22.291
lfingers 7.12502
lthumb 13.3385 7.26206
rfemur 12.6924 -1.80113 8.16122
rtibia 1.644
rfoot -16.3532 -7.16858
rtoes 11.7102
lfemur 15.5124 -5.9048 -16.8142
ltibia 1.02362
lfoot -14.2498 6.24263
ltoes -7.79779
1513
root 49.0259 17.1061 -0.675546 1173.52 86.2109 1176.08
lowerback 2.16018 1.47066 -5.86551
upperback 2.06789 1.91643 -0.360906
thorax 0.742134 0.908093 2.88299
lowerneck -28.7412 0.779871 1.7982
upperneck 16.5715 0.0493635 1.27734
head 9.93616 0.315065 0.179598
rclavicle -1.2424e-015 2.88735e-014
rhumerus -32.2082 12.5814 -91.0227
rradius 34.6154
rwrist -5.49803
rhand -4.5726 -33.6512
rfingers 7.12502
rthumb 21.204 -62.5115
lclavicle -1.2424e-015 2.88735e-014
lhumerus -33.9466 -22.0919 95.7416
lradius 32.1764
lwrist 6.21829
lhand -12.8648 -22.3138
lfingers 7.12502
lthumb 13.2236 7.24676
rfemur 12.7894 -2.51972 7.73528
rtibia 1.92418
rfoot -16.2431 -6.8638
rtoes 9.56005
lfemur 15.6065 -5.86086 -17.0657
ltibia 0.995908
lfoot -14.2254 6.06945
ltoes -8.22456
1514
root 49.0274 17.1071 -0.673568 1171.92 86.1152 1174.47
lowerback 2.14747 1.48976 -5.98792
upperback 2.08186 1.94286 -0.402085
thorax 0.759194 0.919791 2.90898
lowerneck -28.6493 0.819041 1.90291
upperneck 16.5522 0.114189 1.05664
head 9.91383 0.322532 0.0937644
rclavicle -1.14519e-014 7.95139e-015
rhumerus -32.0768 12.4907 -90.9824
rradius 34.7881
rwrist -5.51516
rhand -4.28819 -33.8393
rfingers 7.12502
rthumb 21.4772 -62.6687
lclavicle -1.14519e-014 7.95139e-015
lhumerus -33.5705 -22.0374 95.514
lradius 32.1454
lwrist 6.28549
lhand -12.7333 -22.3062
lfingers 7.12502
lthumb 13.3503 7.2461
rfemur 12.5907 -2.55874 7.60968
rtibia 2.24476
rfoot -16.1391 -6.88227
rtoes 8.67824
lfemur 15.599 -5.80734 -17.1839
ltibia 1.01133
lfoot -14.2624 6.03343
ltoes -7.35442
1515
root 49.03 17.1076 -0.672318 1170.37 86.0811 1172.91
lowerback 2.07928 1.51208 -5.98942
upperback 2.14449 1.9821 -0.471329
thorax 0.860833 0.936378 2.84065
lowerneck -28.472 0.867082 2.01286
upperneck 16.284 0.164544 0.97514
head 9.78813 0.33987 0.053828
rclavicle -8.04923e-015 1.31695e-014
rhumerus -31.8515 12.5618 -91.0804
rradius 34.8097
rwrist -5.90333
rhand -4.51213 -33.9265
rfingers 7.12502
rthumb 21.2621 -62.7803
lclavicle -8.04923e-015 1.31695e-014
lhumerus -32.9768 -21.7943 95.0454
lradius 32.3136
lwrist 7.54498
lhand -11.0615 -21.6351
lfingers 7.12502
lthumb 14.9612 7.80452
rfemur 12.4207 -2.50829 7.56864
rtibia 2.53138
rfoot -16.2493 -6.73751
rtoes 8.10536
lfemur 15.5944 -5.74226 -17.2234
ltibia 1.05047
lfoot -14.3 6.07807
ltoes -6.67624
1516
root 49.0323 17.1071 -0.670906 1169.77 86.1117 1172.31
lowerback 2.26372 1.51784 -5.95823
upperback 2.00188 1.96965 -0.498091
thorax 0.61308 0.939916 2.78821
lowerneck -28.4201 0.892638 2.23651
upperneck 16.4838 0.177943 0.670424
head 9.85183 0.323027 -0.0885685
rclavicle 6.37664e-015 -1.28216e-014
rhumerus -32.0342 12.8092 -91.2984
rradius 34.8288
rwrist -6.29205
rhand -4.93938 -33.8547
rfingers 7.12502
rthumb 20.8517 -62.7542
lclavicle 6.37664e-015 -1.28216e-014
lhumerus -32.9815 -21.6283 94.8995
lradius 32.3245
lwrist 7.43339
lhand -11.2305 -21.6076
lfingers 7.12502
lthumb 14.7984 7.84401
rfemur 12.2786 -2.54013 7.60496
rtibia 2.80214
rfoot -16.4672 -6.6976
rtoes 6.9251
lfemur 15.605 -5.71884 -17.1831
ltibia 1.05375
lfoot -14.268 6.13384
ltoes -6.7006
1517
root 49.0342 17.1059 -0.669934 1168.9 86.2081 1171.45
lowerback 2.21571 1.53629 -5.88
upperback 2.09055 2.00301 -0.469873
thorax 0.729826 0.952571 2.77572
lowerneck -28.5533 0.894074 2.13264
upperneck 16.4564 0.204565 0.728415
head 9.86382 0.335917 -0.0464659
rclavicle 8.9919e-016 -6.01324e-015
rhumerus -31.8553 13.0809 -91.3395
rradius 34.9162
rwrist -6.56754
rhand -5.16891 -33.7958
rfingers 7.12502
rthumb 20.6311 -62.7193
lclavicle 8.9919e-016 -6.01324e-015
lhumerus -32.6029 -21.4265 94.6696
lradius 32.4085
lwrist 7.19854
lhand -11.4602 -21.6584
lfingers 7.12502
lthumb 14.5771 7.80932
rfemur 12.1612 -2.5102 7.72801
rtibia 3.0239
rfoot -16.6221 -6.65201
rtoes 7.75283
lfemur 15.6454 -5.75762 -17.1031
ltibia 1.05611
lfoot -14.3277 6.22824
ltoes -7.10684
1518
root 49.0395 17.1042 -0.670113 1168.71 85.7271 1171.27
lowerback 2.3217 1.59992 -6.30578
upperback 2.09453 2.07878 -0.653905
thorax 0.661526 0.990426 2.81892
lowerneck -28.8983 0.830862 2.15221
upperneck 16.73 0.126496 0.599392
head 10.019 0.28764 -0.10715
rclavicle -4.44936e-016 2.30093e-014
rhumerus -31.7943 13.0099 -91.3524
rradius 35.0418
rwrist -6.59484
rhand -5.01026 -33.8702
rfingers 7.12502
rthumb 20.7836 -62.7771
lclavicle -4.44936e-016 2.30093e-014
lhumerus -32.4184 -21.4197 94.5167
lradius 32.5417
lwrist 7.19066
lhand -11.8301 -21.9329
lfingers 7.12502
lthumb 14.2207 7.56024
rfemur 12.2339 -2.91358 6.94744
rtibia 2.99925
rfoot -16.4184 -6.23385
rtoes 7.91969
lfemur 15.6343 -5.7551 -17.7475
ltibia 1.16381
lfoot -14.4972 6.28164
ltoes -7.34271
1519
root 49.0436 17.1005 -0.657714 1166.65 86.0462 1169.32
lowerback 2.446 1.60272 -6.16718
upperback 2.07064 2.07217 -0.563215
thorax 0.568669 0.990593 2.83103
lowerneck -28.7448 0.937233 2.37898
upperneck 16.7374 0.222682 0.435548
head 9.9976 0.325645 -0.186984
rclavicle -1.38813e-014 -8.08495e-015
rhumerus -31.8923 13.1203 -91.5066
rradius 35.1957
rwrist -6.55075
rhand -4.67253 -34.049
rfingers 7.12502
rthumb 21.108 -62.9201
lclavicle -1.38813e-014 -8.08495e-015
lhumerus -32.3764 -21.0875 94.2642
lradius 32.6979
lwrist 7.28987
lhand -12.0844 -22.3486
lfingers 7.12502
lthumb 13.9756 7.16166
rfemur 12.7767 -2.40003 7.53383
rtibia 2.1038
rfoot -16.1573 -6.51022
rtoes 8.58359
lfemur 15.7979 -5.76075 -17.2889
ltibia 1.17548
lfoot -14.6271 6.32266
ltoes -6.62287
1520
root 49.0463 17.101 -0.647712 1164.87 86.0169 1167.54
lowerback 2.46549 1.63249 -6.3548
upperback 2.05272 2.10632 -0.548002
thorax 0.529643 1.00714 2.94956
lowerneck -28.7569 0.835933 2.13513
upperneck 16.8005 0.125655 0.673047
head 10.0214 0.295827 -0.0784322
rclavicle 6.08361e-015 -3.44457e-015
rhumerus -31.9008 13.1682 -91.5481
rradius 35.3468
rwrist -6.46701
rhand -4.77991 -33.9968
rfingers 7.12502
rthumb 21.0049 -62.8793
lclavicle 6.08361e-015 -3.44457e-015
lhumerus -32.1523 -20.8095 94.0514
lradius 32.7805
lwrist 7.22725
lhand -12.1803 -22.5092
lfingers 7.12502
lthumb 13.8832 7.00739
rfemur 12.6012 -2.38235 7.51666
rtibia 2.38432
rfoot -16.2231 -6.47546
rtoes 8.22871
lfemur 15.8256 -5.78605 -17.2872
ltibia 1.19253
lfoot -14.7097 6.42692
ltoes -6.21319
1521
root 49.0507 17.1009 -0.648603 1163.95 86.1997 1166.65
lowerback 2.47334 1.65378 -6.13098
upperback 2.06592 2.13749 -0.508729
thorax 0.541389 1.02383 2.86426
lowerneck -28.6332 0.782874 1.93064
upperneck 16.7486 0.112587 0.78705
head 9.98177 0.289677 -0.00743146
rclavicle -4.85605e-015 7.81783e-015
rhumerus -31.8234 13.1879 -91.5175
rradius 35.4174
rwrist -6.35008
rhand -4.77628 -34.0762
rfingers 7.12502
rthumb 21.0083 -62.9583
lclavicle -4.85605e-015 7.81783e-015
lhumerus -31.8502 -20.6888 93.9107
lradius 32.8086
lwrist 7.11766
lhand -12.2278 -22.382
lfingers 7.12502
lthumb 13.8375 7.13769
rfemur 12.5753 -2.53968 7.67174
rtibia 2.50273
rfoot -16.1834 -6.2894
rtoes 8.65263
lfemur 15.9326 -6.00105 -17.1936
ltibia 1.099
lfoot -14.7635 6.73382
ltoes -7.15611
1522
root 49.0577 17.1026 -0.650974 1163.35 86.3653 1166.01
lowerback 2.35122 1.67127 -5.89474
upperback 2.07792 2.17295 -0.489999
thorax 0.625693 1.04085 2.75479
lowerneck -28.3556 0.745879 1.79085
upperneck 16.5155 0.123766 0.806022
head 9.85134 0.284976 0.0221358
rclavicle 7.10422e-015 5.05658e-015
rhumerus -31.7243 13.325 -91.5177
rradius 35.4199
rwrist -6.37359
rhand -4.31051 -34.4059
rfingers 7.12502
rthumb 21.4558 -63.2377
lclavicle 7.10422e-015 5.05658e-015
lhumerus -31.6084 -20.7327 93.8455
lradius 32.8104
lwrist 7.26477
lhand -12.3852 -22.2993
lfingers 7.12502
lthumb 13.6858 7.23068
rfemur 12.5454 -2.77256 7.80593
rtibia 2.55646
rfoot -16.113 -6.137
rtoes 8.25952
lfemur 15.9606 -6.15289 -17.1066
ltibia 1.05198
lfoot -14.834 6.98429
ltoes -8.08701
1523
root 49.0592 17.1021 -0.649652 1162.82 86.3598 1165.47
lowerback 2.33876 1.67827 -5.90742
upperback 2.08787 2.18402 -0.519325
thorax 0.642663 1.04597 2.73197
lowerneck -28.6256 0.688428 1.92875
upperneck 16.7427 0.0468793 0.519793
head 9.97741 0.224198 -0.113971
rclavicle -7.56158e-015 -2.32951e-014
rhumerus -31.6434 13.5625 -91.6353
rradius 35.3901
rwrist -6.55204
rhand -4.3208 -34.3412
rfingers 7.12502
rthumb 21.4459 -63.1741
lclavicle -7.56158e-015 -2.32951e-014
lhumerus -31.3944 -20.7297 93.7284
lradius 32.8094
lwrist 7.50863
lhand -12.584 -22.3437
lfingers 7.12502
lthumb 13.4942 7.19917
rfemur 12.5344 -2.71164 7.82529
rtibia 2.54486
rfoot -16.1729 -6.1118
rtoes 8.6251
lfemur 15.9414 -6.13977 -17.1146
ltibia 1.09673
lfoot -14.9003 6.99595
ltoes -8.35628
1524
root 49.0607 17.1013 -0.648057 1162.93 86.3598 1165.56
lowerback 2.37646 1.66835 -5.91886
upperback 2.05931 2.16696 -0.551607
thorax 0.594464 1.03946 2.70383
lowerneck -28.3612 0.707448 1.82803
upperneck 16.4962 0.0878124 0.67127
head 9.84495 0.253359 -0.0378585
rclavicle 9.93302e-015 -6.01324e-015
rhumerus -31.678 13.7751 -91.8034
rradius 35.4165
rwrist -6.89001
rhand -4.85645 -33.9449
rfingers 7.12502
rthumb 20.9313 -62.8356
lclavicle 9.93302e-015 -6.01324e-015
lhumerus -31.2548 -20.6148 93.5862
lradius 32.8516
lwrist 7.62096
lhand -12.8136 -22.4665
lfingers 7.12502
lthumb 13.2729 7.09091
rfemur 12.5399 -2.76451 7.81859
rtibia 2.51459
rfoot -16.1145 -6.05057
rtoes 7.96319
lfemur 15.9626 -6.30758 -17.1817
ltibia 1.00849
lfoot -14.9286 7.16479
ltoes -9.60205
